<svg width="220" height="80" viewBox="0 0 220 80" xmlns="http://www.w3.org/2000/svg">
  <defs>
    <linearGradient id="darkG" x1="0%" y1="0%" x2="100%" y2="100%">
      <stop offset="0%" style="stop-color:#404040" />
      <stop offset="50%" style="stop-color:#1a1a1a" />
      <stop offset="100%" style="stop-color:#2a2a2a" />
    </linearGradient>
    <linearGradient id="lightG" x1="100%" y1="0%" x2="0%" y2="100%">
      <stop offset="0%" style="stop-color:#e0e0e0" />
      <stop offset="50%" style="stop-color:#b0b0b0" />
      <stop offset="100%" style="stop-color:#808080" />
    </linearGradient>
    <linearGradient id="darkS" x1="0%" y1="0%" x2="100%" y2="100%">
      <stop offset="0%" style="stop-color:#555" />
      <stop offset="100%" style="stop-color:#222" />
    </linearGradient>
    <linearGradient id="lightS" x1="100%" y1="0%" x2="0%" y2="100%">
      <stop offset="0%" style="stop-color:#d5d5d5" />
      <stop offset="100%" style="stop-color:#999" />
    </linearGradient>
    <linearGradient id="midTone" x1="0%" y1="0%" x2="0%" y2="100%">
      <stop offset="0%" style="stop-color:#666" />
      <stop offset="100%" style="stop-color:#333" />
    </linearGradient>
  </defs>

  <!-- G letter - 3D style -->
  <g transform="translate(6, 8)">
    <!-- G outer shape - dark face -->
    <path d="M 30 3 C 16 3 5 14 5 30 C 5 46 16 57 30 57 C 40 57 48 51 52 43 L 52 30 L 32 30 L 32 37 L 44 37 L 44 42 C 41 48 36 51 30 51 C 20 51 12 43 12 30 C 12 17 20 9 30 9 C 37 9 42 12 46 17 L 52 13 C 47 6 39 3 30 3 Z"
          fill="url(#darkG)" />
    <!-- G highlight edge -->
    <path d="M 30 3 C 39 3 47 6 52 13 L 49 15 C 45 9 38 6 30 6 C 18 6 8 16 8 30 C 8 44 18 54 30 54 C 37 54 43 50 47 44 L 47 33 L 35 33 L 35 37 L 44 37 L 44 42 C 41 48 36 51 30 51"
          fill="none" stroke="url(#lightG)" stroke-width="1.5" opacity="0.6" />
  </g>

  <!-- S letter - 3D style, overlapping slightly -->
  <g transform="translate(42, 8)">
    <!-- S main shape -->
    <path d="M 38 10 C 35 5 29 3 22 3 C 13 3 5 8 5 17 C 5 27 13 30 22 32 C 29 34 35 36 35 42 C 35 49 29 53 22 53 C 15 53 10 49 7 44 L 2 48 C 6 55 13 58 22 58 C 33 58 42 52 42 42 C 42 32 34 28 24 26 C 17 24 12 22 12 17 C 12 11 17 8 22 8 C 28 8 32 10 35 15 Z"
          fill="url(#darkS)" />
    <!-- S highlight -->
    <path d="M 38 10 C 35 5 29 3 22 3 C 13 3 5 8 5 17 C 5 27 13 30 22 32 C 29 34 35 36 35 42 C 35 49 29 53 22 53 C 15 53 10 49 7 44"
          fill="none" stroke="url(#lightS)" stroke-width="1.5" opacity="0.5" />
  </g>

  <!-- "AUTOS" text -->
  <text x="105" y="43" font-family="'Segoe UI', 'Helvetica Neue', Arial, sans-serif"
        font-size="28" font-weight="700" font-style="italic" fill="#1a1a1a"
        letter-spacing="3">AUTOS</text>

  <!-- Thin accent line -->
  <line x1="105" y1="50" x2="215" y2="50" stroke="#999" stroke-width="0.8" />

  <!-- Small car silhouette -->
  <g transform="translate(105, 54) scale(0.5)">
    <path d="M 0 8 L 5 8 L 10 1 L 30 1 L 38 8 L 55 8 L 55 13 L 0 13 Z" fill="#2a2a2a" />
    <path d="M 12 2 L 19 2 L 18 7 L 11 7 Z" fill="#555" opacity="0.6"/>
    <path d="M 22 2 L 31 2 L 35 7 L 20 7 Z" fill="#555" opacity="0.6"/>
    <circle cx="11" cy="14" r="3.5" fill="#1a1a1a" />
    <circle cx="11" cy="14" r="1.8" fill="#444" />
    <circle cx="44" cy="14" r="3.5" fill="#1a1a1a" />
    <circle cx="44" cy="14" r="1.8" fill="#444" />
  </g>
</svg>
